<svg width="25" height="22" viewBox="0 0 25 22" fill="none" xmlns="http://www.w3.org/2000/svg">
<path fill-rule="evenodd" clip-rule="evenodd" d="M9.98118 21.418C8.62396 20.9573 7.69562 19.4704 7.9973 18.0391L8.54749 14.5175C8.56847 14.3634 8.52318 14.2784 8.48322 14.233C8.43672 14.1804 8.3608 14.1401 8.26102 14.1401L3.8213 14.1401C2.77753 14.1401 1.83731 13.7351 1.26081 12.9686C0.676543 12.1916 0.560445 11.1683 0.928941 10.1408C1.06246 9.76845 1.19521 9.31304 1.35038 8.77207C1.36192 8.73166 1.37358 8.69082 1.38546 8.64964C1.52908 8.14806 1.68946 7.58833 1.87727 7.00384C2.28383 5.73863 2.83092 4.31815 3.67235 2.98501C4.43987 1.76886 5.44868 0.654383 7.23988 0.654384L18.3607 0.654385L18.3613 2.31928L7.23988 2.31928C6.32852 2.31928 5.75524 2.80409 5.0803 3.87351C4.34552 5.03771 3.84938 6.3088 3.46235 7.51319C3.28299 8.07126 3.12959 8.60669 2.98497 9.11159C2.97354 9.15155 2.96211 9.19128 2.95079 9.23091C2.79861 9.76168 2.6511 10.2705 2.49605 10.7028C2.28738 11.2847 2.39316 11.7043 2.5915 11.9679C2.7975 12.2419 3.2003 12.4751 3.8213 12.4751L8.26102 12.4751C9.41911 12.4751 10.3798 13.4646 10.1951 14.7573L10.1935 14.7681L9.63444 18.346L9.62867 18.3719C9.5058 18.9247 9.89838 19.6355 10.5222 19.8434L10.5368 19.8483L10.5512 19.8537C10.7766 19.9382 11.0726 19.9362 11.3757 19.832C11.6845 19.7259 11.9072 19.5458 12.0081 19.3944L12.0099 19.3918L16.5606 12.6213L17.9424 13.55L13.3934 20.318L13.3924 20.3194C13.0492 20.8333 12.4956 21.2076 11.9169 21.4065C11.3364 21.6061 10.6396 21.6603 9.98118 21.418Z" fill="#FF4D4D"/>
<path fill-rule="evenodd" clip-rule="evenodd" d="M24.166 12.5861C24.166 13.6589 23.2964 14.5285 22.2236 14.5285L18.3389 14.5285C17.2661 14.5285 16.3965 13.6589 16.3965 12.5861L16.3965 0.654384L22.2236 0.654384C23.2964 0.654385 24.166 1.52401 24.166 2.59676L24.166 12.5861ZM22.2236 12.8636C22.3769 12.8636 22.5011 12.7394 22.5011 12.5861L22.5011 2.59676C22.5011 2.44359 22.3769 2.31928 22.2236 2.31928L18.0614 2.31928L18.0614 12.5861C18.0614 12.7394 18.1856 12.8636 18.3389 12.8636L22.2236 12.8636Z" fill="#FF4D4D"/>
</svg>
