<svg width="25" height="22" viewBox="0 0 25 22" fill="none" xmlns="http://www.w3.org/2000/svg">
<path fill-rule="evenodd" clip-rule="evenodd" d="M14.886 0.539415C16.2432 1.00011 17.1716 2.487 16.8699 3.91836L16.3197 7.43991C16.2987 7.59406 16.344 7.67906 16.384 7.72444C16.4305 7.77706 16.5064 7.81736 16.6062 7.81736H21.0459C22.0897 7.81736 23.0299 8.22232 23.6064 8.98883C24.1906 9.76578 24.3067 10.7891 23.9382 11.8166C23.8047 12.189 23.672 12.6444 23.5168 13.1854C23.5053 13.2258 23.4936 13.2666 23.4817 13.3078C23.3381 13.8094 23.1777 14.3691 22.9899 14.9536C22.5834 16.2188 22.0363 17.6393 21.1948 18.9724C20.4273 20.1886 19.4185 21.303 17.6273 21.303H6.50647L6.50586 19.6382H17.6273C18.5387 19.6382 19.1119 19.1533 19.7869 18.0839C20.5217 16.9197 21.0178 15.6486 21.4048 14.4442C21.5842 13.8862 21.7376 13.3507 21.8822 12.8458C21.8936 12.8059 21.9051 12.7661 21.9164 12.7265C22.0686 12.1957 22.2161 11.687 22.3711 11.2546C22.5798 10.6727 22.474 10.2532 22.2757 9.98954C22.0697 9.7155 21.6669 9.48231 21.0459 9.48231H16.6062C15.4481 9.48231 14.4874 8.49286 14.6721 7.20016L14.6737 7.18937L15.2327 3.61142L15.2385 3.58554C15.3614 3.03277 14.9688 2.32195 14.345 2.114L14.3304 2.10913L14.3159 2.10373C14.0906 2.01924 13.7946 2.02118 13.4915 2.12539C13.1827 2.23152 12.9599 2.41168 12.8591 2.56299L12.8573 2.5656L8.30661 9.33613L6.92482 8.40742L11.4738 1.63948L11.4748 1.63807C11.8179 1.12415 12.3716 0.749836 12.9503 0.550925C13.5308 0.351371 14.2276 0.297129 14.886 0.539415Z" fill="#7DDB34"/>
<path fill-rule="evenodd" clip-rule="evenodd" d="M0.701172 9.37131C0.701172 8.29852 1.57081 7.42889 2.64355 7.42889H6.5283C7.60104 7.42889 8.47067 8.29852 8.47067 9.37131V21.303H2.64355C1.57081 21.303 0.701172 20.4334 0.701172 19.3607V9.37131ZM2.64355 9.09383C2.4903 9.09383 2.36606 9.21803 2.36606 9.37131V19.3607C2.36606 19.5138 2.4903 19.6382 2.64355 19.6382H6.80578V9.37131C6.80578 9.21803 6.68154 9.09383 6.5283 9.09383H2.64355Z" fill="#7DDB34"/>
</svg>
